<svg width="24" height="24" viewBox="0 0 24 24" fill="none" xmlns="http://www.w3.org/2000/svg">
  <mask id="mask0_5946_367" style="mask-type:luminance" maskUnits="userSpaceOnUse" x="0" y="0" width="24" height="24">
    <path d="M24 0H0V24H24V0Z" fill="white" />
  </mask>
  <g mask="url(#mask0_5946_367)">
    <!-- Outer Circle -->
    <path
      fill-rule="evenodd"
      clip-rule="evenodd"
      d="M12 0C5.37258 0 0 5.37258 0 12C0 18.6274 5.37258 24 12 24C18.6274 24 24 18.6274 24 12C24 5.37258 18.6274 0 12 0ZM2 12C2 6.47715 6.47715 2 12 2C17.5228 2 22 6.47715 22 12C22 17.5228 17.5228 22 12 22C6.47715 22 2 17.5228 2 12Z"
      fill="#000000"
    />
    <!-- Clock Hand -->
    <path
      d="M13 7V12L15.2929 13.2929C15.6834 13.6834 15.6834 14.3166 15.2929 14.7071C14.9024 15.0976 14.2692 15.0976 13.8787 14.7071L11 12L11 7C11 6.44772 11.4477 6 12 6C12.5523 6 13 6.44772 13 7Z"
      fill="#000000"
    />
  </g>
</svg>
